<svg width="16" height="15" viewBox="0 0 16 15" fill="none" xmlns="http://www.w3.org/2000/svg">
<path d="M14.675 0H1.325C1.1062 0 0.896354 0.0869195 0.741637 0.241637C0.586919 0.396354 0.5 0.606196 0.5 0.825V14.175C0.5 14.2833 0.521339 14.3906 0.562799 14.4907C0.60426 14.5908 0.665029 14.6818 0.741637 14.7584C0.818245 14.835 0.909193 14.8957 1.00929 14.9372C1.10938 14.9787 1.21666 15 1.325 15H8.51V9.1875H6.56V6.9375H8.51V5.25C8.46961 4.85382 8.51638 4.4536 8.64704 4.0774C8.77769 3.70121 8.98907 3.35816 9.26635 3.07231C9.54362 2.78646 9.88008 2.56473 10.2521 2.42268C10.6242 2.28063 11.0228 2.22169 11.42 2.25C12.0037 2.24641 12.5872 2.27646 13.1675 2.34V4.365H11.975C11.03 4.365 10.85 4.815 10.85 5.4675V6.915H13.1L12.8075 9.165H10.85V15H14.675C14.7833 15 14.8906 14.9787 14.9907 14.9372C15.0908 14.8957 15.1818 14.835 15.2584 14.7584C15.335 14.6818 15.3957 14.5908 15.4372 14.4907C15.4787 14.3906 15.5 14.2833 15.5 14.175V0.825C15.5 0.716659 15.4787 0.60938 15.4372 0.509286C15.3957 0.409193 15.335 0.318245 15.2584 0.241637C15.1818 0.165029 15.0908 0.10426 14.9907 0.0627995C14.8906 0.0213393 14.7833 0 14.675 0Z" fill="#EAEAEA"/>
</svg>
